<svg id="visual" viewBox="0 0 900 600" width="900" height="600" xmlns="http://www.w3.org/2000/svg" xmlns:xlink="http://www.w3.org/1999/xlink" version="1.1"><rect x="0" y="0" width="900" height="600" fill="#001220"></rect><defs><linearGradient id="grad1_0" x1="33.3%" y1="0%" x2="100%" y2="100%"><stop offset="20%" stop-color="#f7770f" stop-opacity="1"></stop><stop offset="80%" stop-color="#f7770f" stop-opacity="1"></stop></linearGradient></defs><defs><linearGradient id="grad1_1" x1="33.3%" y1="0%" x2="100%" y2="100%"><stop offset="20%" stop-color="#f7770f" stop-opacity="1"></stop><stop offset="80%" stop-color="#e64a46" stop-opacity="1"></stop></linearGradient></defs><defs><linearGradient id="grad1_2" x1="33.3%" y1="0%" x2="100%" y2="100%"><stop offset="20%" stop-color="#be3261" stop-opacity="1"></stop><stop offset="80%" stop-color="#e64a46" stop-opacity="1"></stop></linearGradient></defs><defs><linearGradient id="grad1_3" x1="33.3%" y1="0%" x2="100%" y2="100%"><stop offset="20%" stop-color="#be3261" stop-opacity="1"></stop><stop offset="80%" stop-color="#872f6b" stop-opacity="1"></stop></linearGradient></defs><defs><linearGradient id="grad1_4" x1="33.3%" y1="0%" x2="100%" y2="100%"><stop offset="20%" stop-color="#4c2d60" stop-opacity="1"></stop><stop offset="80%" stop-color="#872f6b" stop-opacity="1"></stop></linearGradient></defs><defs><linearGradient id="grad1_5" x1="33.3%" y1="0%" x2="100%" y2="100%"><stop offset="20%" stop-color="#4c2d60" stop-opacity="1"></stop><stop offset="80%" stop-color="#1a2344" stop-opacity="1"></stop></linearGradient></defs><defs><linearGradient id="grad1_6" x1="33.3%" y1="0%" x2="100%" y2="100%"><stop offset="20%" stop-color="#001220" stop-opacity="1"></stop><stop offset="80%" stop-color="#1a2344" stop-opacity="1"></stop></linearGradient></defs><defs><linearGradient id="grad2_0" x1="0%" y1="0%" x2="66.7%" y2="100%"><stop offset="20%" stop-color="#f7770f" stop-opacity="1"></stop><stop offset="80%" stop-color="#f7770f" stop-opacity="1"></stop></linearGradient></defs><defs><linearGradient id="grad2_1" x1="0%" y1="0%" x2="66.7%" y2="100%"><stop offset="20%" stop-color="#e64a46" stop-opacity="1"></stop><stop offset="80%" stop-color="#f7770f" stop-opacity="1"></stop></linearGradient></defs><defs><linearGradient id="grad2_2" x1="0%" y1="0%" x2="66.7%" y2="100%"><stop offset="20%" stop-color="#e64a46" stop-opacity="1"></stop><stop offset="80%" stop-color="#be3261" stop-opacity="1"></stop></linearGradient></defs><defs><linearGradient id="grad2_3" x1="0%" y1="0%" x2="66.7%" y2="100%"><stop offset="20%" stop-color="#872f6b" stop-opacity="1"></stop><stop offset="80%" stop-color="#be3261" stop-opacity="1"></stop></linearGradient></defs><defs><linearGradient id="grad2_4" x1="0%" y1="0%" x2="66.7%" y2="100%"><stop offset="20%" stop-color="#872f6b" stop-opacity="1"></stop><stop offset="80%" stop-color="#4c2d60" stop-opacity="1"></stop></linearGradient></defs><defs><linearGradient id="grad2_5" x1="0%" y1="0%" x2="66.7%" y2="100%"><stop offset="20%" stop-color="#1a2344" stop-opacity="1"></stop><stop offset="80%" stop-color="#4c2d60" stop-opacity="1"></stop></linearGradient></defs><defs><linearGradient id="grad2_6" x1="0%" y1="0%" x2="66.7%" y2="100%"><stop offset="20%" stop-color="#1a2344" stop-opacity="1"></stop><stop offset="80%" stop-color="#001220" stop-opacity="1"></stop></linearGradient></defs><g transform="translate(900, 0)"><path d="M0 486.7C-63.6 479.9 -127.2 473.1 -186.3 449.7C-245.3 426.3 -299.7 386.2 -337.3 337.3C-374.8 288.4 -395.5 230.7 -417.6 173C-439.7 115.3 -463.2 57.6 -486.7 0L0 0Z" fill="#091c32"></path><path d="M0 417.2C-54.5 411.4 -109.1 405.5 -159.7 385.5C-210.3 365.4 -256.9 331 -289.1 289.1C-321.3 247.2 -339 197.7 -357.9 148.3C-376.9 98.8 -397 49.4 -417.2 0L0 0Z" fill="#312954"></path><path d="M0 347.7C-45.4 342.8 -90.9 338 -133.1 321.2C-175.2 304.5 -214.1 275.8 -240.9 240.9C-267.7 206 -282.5 164.8 -298.3 123.6C-314.1 82.3 -330.9 41.2 -347.7 0L0 0Z" fill="#692f68"></path><path d="M0 278.1C-36.4 274.3 -72.7 270.4 -106.4 257C-140.2 243.6 -171.3 220.7 -192.7 192.7C-214.2 164.8 -226 131.8 -238.6 98.8C-251.3 65.9 -264.7 32.9 -278.1 0L0 0Z" fill="#a42f69"></path><path d="M0 208.6C-27.3 205.7 -54.5 202.8 -79.8 192.7C-105.1 182.7 -128.5 165.5 -144.6 144.6C-160.6 123.6 -169.5 98.9 -179 74.1C-188.4 49.4 -198.5 24.7 -208.6 0L0 0Z" fill="#d53a55"></path><path d="M0 139.1C-18.2 137.1 -36.4 135.2 -53.2 128.5C-70.1 121.8 -85.6 110.3 -96.4 96.4C-107.1 82.4 -113 65.9 -119.3 49.4C-125.6 32.9 -132.3 16.5 -139.1 0L0 0Z" fill="#f25f31"></path><path d="M0 69.5C-9.1 68.6 -18.2 67.6 -26.6 64.2C-35 60.9 -42.8 55.2 -48.2 48.2C-53.5 41.2 -56.5 33 -59.7 24.7C-62.8 16.5 -66.2 8.2 -69.5 0L0 0Z" fill="#f7770f"></path></g><g transform="translate(0, 600)"><path d="M0 -486.7C51.7 -439 103.4 -391.3 148.9 -359.4C194.3 -327.5 233.6 -311.5 288.5 -288.5C343.4 -265.5 414 -235.5 449.7 -186.3C485.4 -137 486.1 -68.5 486.7 0L0 0Z" fill="#091c32"></path><path d="M0 -417.2C44.3 -376.3 88.6 -335.4 127.6 -308C166.6 -280.7 200.2 -267 247.3 -247.3C294.4 -227.6 354.9 -201.9 385.5 -159.7C416 -117.4 416.6 -58.7 417.2 0L0 0Z" fill="#312954"></path><path d="M0 -347.7C36.9 -313.6 73.9 -279.5 106.3 -256.7C138.8 -233.9 166.8 -222.5 206.1 -206.1C245.3 -189.6 295.7 -168.2 321.2 -133.1C346.7 -97.9 347.2 -48.9 347.7 0L0 0Z" fill="#692f68"></path><path d="M0 -278.1C29.5 -250.9 59.1 -223.6 85.1 -205.4C111 -187.1 133.5 -178 164.9 -164.9C196.2 -151.7 236.6 -134.6 257 -106.4C277.3 -78.3 277.7 -39.1 278.1 0L0 0Z" fill="#a42f69"></path><path d="M0 -208.6C22.2 -188.1 44.3 -167.7 63.8 -154C83.3 -140.4 100.1 -133.5 123.6 -123.6C147.2 -113.8 177.4 -100.9 192.7 -79.8C208 -58.7 208.3 -29.4 208.6 0L0 0Z" fill="#d53a55"></path><path d="M0 -139.1C14.8 -125.4 29.5 -111.8 42.5 -102.7C55.5 -93.6 66.7 -89 82.4 -82.4C98.1 -75.9 118.3 -67.3 128.5 -53.2C138.7 -39.1 138.9 -19.6 139.1 0L0 0Z" fill="#f25f31"></path><path d="M0 -69.5C7.4 -62.7 14.8 -55.9 21.3 -51.3C27.8 -46.8 33.4 -44.5 41.2 -41.2C49.1 -37.9 59.1 -33.6 64.2 -26.6C69.3 -19.6 69.4 -9.8 69.5 0L0 0Z" fill="#f7770f"></path></g></svg>